<?xml version="1.0" encoding="UTF-8"?>
<svg width="131px" height="120px" viewBox="0 0 131 120" version="1.1" xmlns="http://www.w3.org/2000/svg" xmlns:xlink="http://www.w3.org/1999/xlink">
    <!-- Generator: Sketch 60.1 (88133) - https://sketch.com -->
    <title>Asset 3</title>
    <desc>Created with Sketch.</desc>
    <g id="Page-1" stroke="none" stroke-width="1" fill="none" fill-rule="evenodd">
        <g id="Careers" transform="translate(-975.000000, -3264.000000)">
            <g id="How" transform="translate(270.000000, 3046.000000)">
                <g id="3" transform="translate(640.000000, 218.000000)">
                    <g id="Asset-3" transform="translate(65.000000, 0.000000)">
                        <path d="M50.5903448,53.9586207 C48.4786913,52.1906152 45.3611201,52.3493804 43.44,54.3227586 L37.2413793,60.5048276 C37.2413793,60.5048276 37.2,60.5048276 37.2,60.5048276 L37.2,41.4703448 L37.2,41.4703448 C37.2,39.8203465 38.5375879,38.4827586 40.1875862,38.4827586 C41.8375845,38.4827586 43.1751724,39.8203465 43.1751724,41.4703448 C43.1751724,43.9841927 45.2130487,46.022069 47.7268966,46.022069 C50.2407444,46.022069 52.2786207,43.9841927 52.2786207,41.4703448 C52.2786207,34.7972215 46.8689854,29.3875862 40.1958621,29.3875862 C33.5227387,29.3875862 28.1131034,34.7972215 28.1131034,41.4703448 L28.1131034,41.4703448 L28.1131034,41.4703448 C28.1131034,38.956497 26.0752271,36.9186207 23.5613793,36.9186207 C21.0475315,36.9186207 19.0096552,38.956497 19.0096552,41.4703448 L19.0096552,46.5103448 C19.0099223,45.2548785 18.4906857,44.0552615 17.5751676,43.1961794 C16.6596494,42.3370972 15.4294641,41.8951335 14.1765517,41.9751724 C11.7372451,42.1921768 9.88225275,44.2605113 9.93103448,46.7089655 L9.93103448,51.5751724 C9.93344438,50.3198003 9.41633189,49.1193782 8.5023984,48.2587444 C7.58846491,47.3981107 6.35917141,46.9539755 5.1062069,47.0317241 C2.66217217,47.2358588 0.792985086,49.2966647 0.827113551,51.7489655 L0.827113551,62.8055172 C0.827113551,70.9458136 7.42660023,77.5448276 15.5668966,77.5448276 L26.697931,77.5448276 C31.8203467,77.5440372 36.7325019,75.5077256 40.3531034,71.8841379 L50.822069,61.4151724 C51.8198799,60.4156375 52.3607626,59.0484978 52.3168932,57.6368419 C52.2730237,56.2251861 51.6482947,54.8942696 50.5903448,53.9586207 Z" id="Path" fill="#0039B2" fill-rule="nonzero" opacity="0.2" style="mix-blend-mode: multiply;"></path>
                        <rect id="Rectangle" fill="#719BFF" fill-rule="nonzero" x="89.9917241" y="108.993103" width="9.9062069" height="9.9062069"></rect>
                        <rect id="Rectangle" fill="#D0DEFF" fill-rule="nonzero" x="99.9062069" y="108.993103" width="9.9062069" height="9.9062069"></rect>
                        <rect id="Rectangle" fill="#719BFF" fill-rule="nonzero" x="109.812414" y="108.993103" width="9.9062069" height="9.9062069"></rect>
                        <rect id="Rectangle" fill="#1258FF" fill-rule="nonzero" x="60.2731034" y="108.993103" width="29.7268966" height="9.9062069"></rect>
                        <rect id="Rectangle" fill="#FFAE93" fill-rule="nonzero" transform="translate(85.038621, 104.040000) rotate(180.000000) translate(-85.038621, -104.040000) " x="80.0855172" y="99.0868966" width="9.9062069" height="9.9062069"></rect>
                        <rect id="Rectangle" fill="#D0DEFF" fill-rule="nonzero" transform="translate(75.132414, 104.040000) rotate(180.000000) translate(-75.132414, -104.040000) " x="70.1793103" y="99.0868966" width="9.9062069" height="9.9062069"></rect>
                        <rect id="Rectangle" fill="#719BFF" fill-rule="nonzero" x="89.9917241" y="89.1724138" width="9.9062069" height="9.9062069"></rect>
                        <rect id="Rectangle" fill="#D0DEFF" fill-rule="nonzero" x="99.9062069" y="89.1724138" width="9.9062069" height="9.9062069"></rect>
                        <rect id="Rectangle" fill="#1258FF" fill-rule="nonzero" x="60.2731034" y="89.1724138" width="29.7268966" height="9.9062069"></rect>
                        <rect id="Rectangle" fill="#719BFF" fill-rule="nonzero" transform="translate(85.038621, 84.219310) rotate(180.000000) translate(-85.038621, -84.219310) " x="80.0855172" y="79.2662069" width="9.9062069" height="9.9062069"></rect>
                        <rect id="Rectangle" fill="#D0DEFF" fill-rule="nonzero" transform="translate(75.132414, 84.219310) rotate(180.000000) translate(-75.132414, -84.219310) " x="70.1793103" y="79.2662069" width="9.9062069" height="9.9062069"></rect>
                        <rect id="Rectangle" fill="#719BFF" fill-rule="nonzero" transform="translate(65.217931, 84.219310) rotate(180.000000) translate(-65.217931, -84.219310) " x="60.2648276" y="79.2662069" width="9.9062069" height="9.9062069"></rect>
                        <rect id="Rectangle" fill="#1258FF" fill-rule="nonzero" transform="translate(104.855172, 84.219310) rotate(180.000000) translate(-104.855172, -84.219310) " x="89.9917241" y="79.2662069" width="29.7268966" height="9.9062069"></rect>
                        <rect id="Rectangle" fill="#FFAE93" fill-rule="nonzero" x="99.9062069" y="69.36" width="9.9062069" height="9.9062069"></rect>
                        <rect id="Rectangle" fill="#719BFF" fill-rule="nonzero" x="109.812414" y="69.36" width="9.9062069" height="9.9062069"></rect>
                        <rect id="Rectangle" fill="#FF784B" fill-rule="nonzero" x="70.1793103" y="69.36" width="29.7268966" height="9.9062069"></rect>
                        <rect id="Rectangle" fill="#719BFF" fill-rule="nonzero" transform="translate(85.038621, 64.406897) rotate(180.000000) translate(-85.038621, -64.406897) " x="80.0855172" y="59.4537931" width="9.9062069" height="9.9062069"></rect>
                        <rect id="Rectangle" fill="#D0DEFF" fill-rule="nonzero" transform="translate(75.132414, 64.406897) rotate(180.000000) translate(-75.132414, -64.406897) " x="70.1793103" y="59.4537931" width="9.9062069" height="9.9062069"></rect>
                        <rect id="Rectangle" fill="#719BFF" fill-rule="nonzero" transform="translate(65.217931, 64.406897) rotate(180.000000) translate(-65.217931, -64.406897) " x="60.2648276" y="59.4537931" width="9.9062069" height="9.9062069"></rect>
                        <rect id="Rectangle" fill="#1258FF" fill-rule="nonzero" transform="translate(104.855172, 64.406897) rotate(180.000000) translate(-104.855172, -64.406897) " x="89.9917241" y="59.4537931" width="29.7268966" height="9.9062069"></rect>
                        <rect id="Rectangle" fill="#719BFF" fill-rule="nonzero" x="89.9917241" y="49.5393103" width="9.9062069" height="9.9062069"></rect>
                        <rect id="Rectangle" fill="#D0DEFF" fill-rule="nonzero" x="99.9062069" y="49.5393103" width="9.9062069" height="9.9062069"></rect>
                        <rect id="Rectangle" fill="#719BFF" fill-rule="nonzero" x="109.812414" y="49.5393103" width="9.9062069" height="9.9062069"></rect>
                        <rect id="Rectangle" fill="#1258FF" fill-rule="nonzero" x="60.2731034" y="49.5393103" width="29.7268966" height="9.9062069"></rect>
                        <rect id="Rectangle" fill="#719BFF" fill-rule="nonzero" transform="translate(85.038621, 44.586207) rotate(180.000000) translate(-85.038621, -44.586207) " x="80.0855172" y="39.6331034" width="9.9062069" height="9.9062069"></rect>
                        <rect id="Rectangle" fill="#D0DEFF" fill-rule="nonzero" transform="translate(75.132414, 44.586207) rotate(180.000000) translate(-75.132414, -44.586207) " x="70.1793103" y="39.6331034" width="9.9062069" height="9.9062069"></rect>
                        <rect id="Rectangle" fill="#FFAE93" fill-rule="nonzero" transform="translate(49.022069, 44.586207) rotate(180.000000) translate(-49.022069, -44.586207) " x="44.0689655" y="39.6331034" width="9.9062069" height="9.9062069"></rect>
                        <rect id="Rectangle" fill="#FF784B" fill-rule="nonzero" transform="translate(62.077241, 44.586207) rotate(180.000000) translate(-62.077241, -44.586207) " x="53.9751724" y="39.6331034" width="16.2041379" height="9.9062069"></rect>
                        <rect id="Rectangle" fill="#1258FF" fill-rule="nonzero" transform="translate(104.855172, 44.586207) rotate(180.000000) translate(-104.855172, -44.586207) " x="89.9917241" y="39.6331034" width="29.7268966" height="9.9062069"></rect>
                        <rect id="Rectangle" fill="#719BFF" fill-rule="nonzero" x="89.9917241" y="29.7268966" width="9.9062069" height="9.9062069"></rect>
                        <rect id="Rectangle" fill="#D0DEFF" fill-rule="nonzero" x="99.9062069" y="29.7268966" width="9.9062069" height="9.9062069"></rect>
                        <rect id="Rectangle" fill="#719BFF" fill-rule="nonzero" x="109.812414" y="29.7268966" width="9.9062069" height="9.9062069"></rect>
                        <rect id="Rectangle" fill="#1258FF" fill-rule="nonzero" x="60.2731034" y="29.7268966" width="29.7268966" height="9.9062069"></rect>
                        <rect id="Rectangle" fill="#D0DEFF" fill-rule="nonzero" transform="translate(75.132414, 24.773793) rotate(180.000000) translate(-75.132414, -24.773793) " x="70.1793103" y="19.8206897" width="9.9062069" height="9.9062069"></rect>
                        <rect id="Rectangle" fill="#FFAE93" fill-rule="nonzero" x="89.9917241" y="9.9062069" width="9.9062069" height="9.9062069"></rect>
                        <rect id="Rectangle" fill="#D0DEFF" fill-rule="nonzero" x="99.9062069" y="9.9062069" width="9.9062069" height="9.9062069"></rect>
                        <rect id="Rectangle" fill="#719BFF" fill-rule="nonzero" x="109.812414" y="9.9062069" width="9.9062069" height="9.9062069"></rect>
                        <rect id="Rectangle" fill="#FF784B" fill-rule="nonzero" x="60.2731034" y="9.9062069" width="29.7268966" height="9.9062069"></rect>
                        <rect id="Rectangle" fill="#719BFF" fill-rule="nonzero" transform="translate(85.038621, 4.953103) rotate(180.000000) translate(-85.038621, -4.953103) " x="80.0855172" y="1.24344979e-14" width="9.9062069" height="9.9062069"></rect>
                        <rect id="Rectangle" fill="#D0DEFF" fill-rule="nonzero" transform="translate(75.132414, 4.953103) rotate(180.000000) translate(-75.132414, -4.953103) " x="70.1793103" y="1.0658141e-14" width="9.9062069" height="9.9062069"></rect>
                        <rect id="Rectangle" fill="#719BFF" fill-rule="nonzero" transform="translate(65.217931, 4.953103) rotate(180.000000) translate(-65.217931, -4.953103) " x="60.2648276" y="9.76996262e-15" width="9.9062069" height="9.9062069"></rect>
                        <rect id="Rectangle" fill="#1258FF" fill-rule="nonzero" transform="translate(104.855172, 4.953103) rotate(180.000000) translate(-104.855172, -4.953103) " x="89.9917241" y="1.50990331e-14" width="29.7268966" height="9.9062069"></rect>
                        <rect id="Rectangle" fill="#1258FF" fill-rule="nonzero" transform="translate(94.948966, 24.773793) rotate(180.000000) translate(-94.948966, -24.773793) " x="80.0855172" y="19.8206897" width="29.7268966" height="9.9062069"></rect>
                        <polygon id="Path" fill="#0039B2" fill-rule="nonzero" opacity="0.4" style="mix-blend-mode: multiply;" points="89.9917241 0 89.9917241 9.9062069 99.9062069 9.9062069 99.9062069 19.8206897 80.0855172 19.8206897 80.0855172 29.7268966 89.9917241 29.7268966 89.9917241 69.36 109.812414 69.36 109.812414 79.2662069 89.9917241 79.2662069 89.9917241 118.89931 119.718621 118.89931 119.718621 99.0786207 109.812414 99.0786207 109.812414 89.1724138 119.718621 89.1724138 119.718621 29.7268966 109.812414 29.7268966 109.812414 19.8206897 119.718621 19.8206897 119.718621 0"></polygon>
                        <rect id="Rectangle" fill="#FF784B" fill-rule="nonzero" transform="translate(104.855172, 104.040000) rotate(180.000000) translate(-104.855172, -104.040000) " x="89.9917241" y="99.0868966" width="29.7268966" height="9.9062069"></rect>
                        <line x1="130.493793" y1="118.89931" x2="36.1655172" y2="118.89931" id="Path" stroke="#000000" stroke-linecap="round"></line>
                        <line x1="29.7103448" y1="118.89931" x2="17.4786207" y2="118.89931" id="Path" stroke="#000000" stroke-linecap="round"></line>
                        <path d="M50.5903448,49.8206897 C48.4786913,48.0526842 45.3611201,48.2114494 43.44,50.1848276 L37.2413793,56.3668966 C37.2413793,56.3668966 37.2,56.3668966 37.2,56.3668966 L37.2,37.3324138 L37.2,37.3324138 C37.2,35.6824155 38.5375879,34.3448276 40.1875862,34.3448276 C41.8375845,34.3448276 43.1751724,35.6824155 43.1751724,37.3324138 C43.1751724,39.8462616 45.2130487,41.8841379 47.7268966,41.8841379 C50.2407444,41.8841379 52.2786207,39.8462616 52.2786207,37.3324138 C52.2786207,30.6592905 46.8689854,25.2496552 40.1958621,25.2496552 C33.5227387,25.2496552 28.1131034,30.6592905 28.1131034,37.3324138 L28.1131034,37.3324138 L28.1131034,37.3324138 C28.1131034,34.818566 26.0752271,32.7806897 23.5613793,32.7806897 C21.0475315,32.7806897 19.0096552,34.818566 19.0096552,37.3324138 L19.0096552,42.3724138 C19.0099223,41.1169475 18.4906857,39.9173305 17.5751676,39.0582483 C16.6596494,38.1991662 15.4294641,37.7572025 14.1765517,37.8372414 C11.7372451,38.0542457 9.88225275,40.1225803 9.93103448,42.5710345 L9.93103448,47.4372414 C9.93344438,46.1818693 9.41633189,44.9814472 8.5023984,44.1208134 C7.58846491,43.2601796 6.35917141,42.8160445 5.1062069,42.8937931 C2.66217217,43.0979278 0.792985086,45.1587336 0.827113551,47.6110345 L0.827113551,58.6675862 C0.827113551,66.8078825 7.42660023,73.4068966 15.5668966,73.4068966 L26.697931,73.4068966 C31.8203467,73.4061061 36.7325019,71.3697946 40.3531034,67.7462069 L50.822069,57.2772414 C51.8198799,56.2777064 52.3607626,54.9105668 52.3168932,53.4989109 C52.2730237,52.087255 51.6482947,50.7563386 50.5903448,49.8206897 Z" id="Path" fill="#D1917B" fill-rule="nonzero"></path>
                        <line x1="28.1213793" y1="37.3489655" x2="28.1213793" y2="42.3889655" id="Path" stroke="#000000" fill="#FFFFFF" fill-rule="nonzero" stroke-linecap="round" stroke-linejoin="round"></line>
                        <line x1="54.9517241" y1="14.0855172" x2="49.6882759" y2="19.3489655" id="Path" stroke="#000000" stroke-linecap="round"></line>
                        <line x1="42.2068966" y1="19.3489655" x2="36.9517241" y2="14.0855172" id="Path" stroke="#000000" stroke-linecap="round"></line>
                        <line x1="45.9475862" y1="10.3613793" x2="45.9475862" y2="17.7931034" id="Path" stroke="#000000" stroke-linecap="round"></line>
                    </g>
                </g>
            </g>
        </g>
    </g>
</svg>