<?xml version="1.0" encoding="UTF-8"?>
<svg width="115px" height="120px" viewBox="0 0 115 120" version="1.1" xmlns="http://www.w3.org/2000/svg" xmlns:xlink="http://www.w3.org/1999/xlink">
    <!-- Generator: Sketch 60.1 (88133) - https://sketch.com -->
    <title>Asset 6</title>
    <desc>Created with Sketch.</desc>
    <g id="Page-1" stroke="none" stroke-width="1" fill="none" fill-rule="evenodd">
        <g id="Careers" transform="translate(-663.000000, -3264.000000)">
            <g id="How" transform="translate(270.000000, 3046.000000)">
                <g id="2" transform="translate(320.000000, 218.000000)">
                    <g id="Asset-6" transform="translate(73.000000, 0.000000)">
                        <path d="M60.4449438,2.46067416 L66.3438202,22.4764045 C66.66347,23.5646319 67.5002007,24.4246109 68.5792615,24.7739568 C69.6583224,25.1233028 70.8403004,24.9168808 71.7370787,24.2224719 L88.2674157,11.5011236 C89.4732806,10.5729966 91.1463645,10.5498801 92.3774115,11.444337 C93.6084584,12.3387939 94.1034015,13.9371604 93.5932584,15.3707865 L86.5955056,35.0561798 C86.2147493,36.1223831 86.3844032,37.3077779 87.0489389,38.2243788 C87.7134746,39.1409798 88.7873577,39.6708085 89.9191011,39.6404494 L110.777528,39.0606742 C112.297534,39.0227724 113.661239,39.9896679 114.128485,41.4365736 C114.595731,42.8834794 114.055091,44.4653409 112.8,45.3235955 L95.6022472,57.0808989 C94.6678996,57.7205778 94.1092789,58.7800193 94.1092789,59.9123596 C94.1092789,61.0446998 94.6678996,62.1041413 95.6022472,62.7438202 L112.813483,74.5348315 C114.068575,75.393086 114.609215,76.9749476 114.141968,78.4218533 C113.674722,79.8687591 112.311017,80.8356546 110.791011,80.7977528 L89.9191011,80.2247191 C88.7873577,80.1943601 87.7134746,80.7241888 87.0489389,81.6407897 C86.3844032,82.5573906 86.2147493,83.7427854 86.5955056,84.8089888 L93.5865169,104.460674 C94.0966599,105.8943 93.6017168,107.492667 92.3706699,108.387124 C91.1396229,109.281581 89.466539,109.258464 88.2606742,108.330337 L71.7303371,95.6022472 C70.8335588,94.9078383 69.6515808,94.7014163 68.57252,95.0507623 C67.4934591,95.4001082 66.6567284,96.2600872 66.3370787,97.3483146 L60.4382022,117.364045 C60.006265,118.820789 58.6677464,119.820025 57.1483146,119.820025 C55.6288828,119.820025 54.2903642,118.820789 53.858427,117.364045 L47.9662921,97.3483146 C47.6466424,96.2600872 46.8099117,95.4001082 45.7308508,95.0507623 C44.65179,94.7014163 43.469812,94.9078383 42.5730337,95.6022472 L26.0494382,108.323596 C24.8435734,109.251722 23.1704894,109.274839 21.9394425,108.380382 C20.7083955,107.485925 20.2134524,105.887559 20.7235955,104.453933 L27.7146067,84.8022472 C28.0958428,83.734898 27.925447,82.5481476 27.2592997,81.6311836 C26.5931523,80.7142196 25.5171906,80.1853362 24.3842697,80.2179775 L3.53258427,80.7977528 C2.01257812,80.8356546 0.648873327,79.8687591 0.181627124,78.4218533 C-0.28561908,76.9749476 0.255020982,75.393086 1.51011236,74.5348315 L18.7078652,62.7438202 C19.6422128,62.1041413 20.2008334,61.0446998 20.2008334,59.9123596 C20.2008334,58.7800193 19.6422128,57.7205778 18.7078652,57.0808989 L1.49662921,45.2898876 C0.241537836,44.4316331 -0.299102226,42.8497715 0.168143977,41.4028658 C0.635390181,39.95596 1.99909497,38.9890645 3.51910112,39.0269663 L24.3707865,39.6067416 C25.4976783,39.6397542 26.5688976,39.1171353 27.2364612,38.2086566 C27.9040249,37.3001778 28.0827607,36.1217489 27.7146067,35.0561798 L20.7235955,15.3707865 C20.2134524,13.9371604 20.7083955,12.3387939 21.9394425,11.444337 C23.1704894,10.5498801 24.8435734,10.5729966 26.0494382,11.5011236 L42.5797753,24.2224719 C43.4765536,24.9168808 44.6585316,25.1233028 45.7375924,24.7739568 C46.8166533,24.4246109 47.6533839,23.5646319 47.9730337,22.4764045 L53.8651685,2.46067416 C54.2971058,1.00393008 55.6356243,0.00469370924 57.1550562,0.00469370924 C58.674488,0.00469370924 60.0130066,1.00393008 60.4449438,2.46067416 Z" id="Path" fill="#F5F6F7" fill-rule="nonzero"></path>
                        <line x1="88.7595506" y1="39.6876404" x2="82.6988764" y2="39.6876404" id="Path" stroke="#000000" stroke-linecap="round"></line>
                        <line x1="78.3910112" y1="35.3797753" x2="78.3910112" y2="29.3191011" id="Path" stroke="#000000" stroke-linecap="round"></line>
                        <line x1="85.7258427" y1="32.3595506" x2="81.4382022" y2="36.6404494" id="Path" stroke="#000000" stroke-linecap="round"></line>
                        <line x1="35.9191011" y1="29.3191011" x2="35.9191011" y2="35.3797753" id="Path" stroke="#000000" stroke-linecap="round"></line>
                        <line x1="31.611236" y1="39.6876404" x2="25.5505618" y2="39.6876404" id="Path" stroke="#000000" stroke-linecap="round"></line>
                        <line x1="28.5842697" y1="32.3595506" x2="32.8719101" y2="36.6404494" id="Path" stroke="#000000" stroke-linecap="round"></line>
                        <path d="M91.9146067,75.9370787 L74.7033708,51.9101124 L54.9438202,66.0674157 L61.6247191,83.2382022 C63.2648319,87.4570879 66.7631207,90.6808517 71.1016964,91.9714824 C75.440272,93.2621131 80.1318144,92.4746437 83.811236,89.8382022 L90.3977528,85.1191011 C91.816709,84.1027868 92.7737267,82.5643358 93.0582038,80.8423009 C93.3426809,79.120266 92.9313061,77.355759 91.9146067,75.9370787 Z" id="Path" fill="#FFC6B2" fill-rule="nonzero"></path>
                        <path d="M83.5146067,63.6876404 C82.1551523,61.7820658 79.508756,61.3384851 77.6022472,62.6966292 L77.6022472,62.6966292 L62.7707865,42.0337079 L39.6134831,58.6516854 L52.4224719,76.5033708 C54.2643876,79.0761531 57.0532298,80.8114975 60.1750455,81.3273747 C63.2968611,81.8432519 66.4957237,81.0973702 69.0674157,79.2539326 L82.5505618,69.5932584 C83.462467,68.9386731 84.076553,67.9482479 84.2574018,66.8403911 C84.4382506,65.7325343 84.1710082,64.5982393 83.5146067,63.6876404 L83.5146067,63.6876404 Z" id="Path" fill="#0039B2" fill-rule="nonzero" opacity="0.2" style="mix-blend-mode: multiply;"></path>
                        <path d="M38.9697031,40.4455707 L67.4932986,40.4455707 L67.4932986,62.3961325 C67.4932986,65.5608506 66.2361192,68.5959501 63.9983256,70.8337438 C61.7605319,73.0715374 58.7254324,74.3287168 55.5607143,74.3287168 L38.9697031,74.3287168 L38.9697031,40.4455707 Z" id="Path" fill="#FFC6B2" fill-rule="nonzero" transform="translate(53.231501, 57.387144) rotate(35.630000) translate(-53.231501, -57.387144) "></path>
                        <path d="M46.8097337,40.4245256 L63.4007449,40.4245256 C69.9909292,40.4245256 75.3333292,45.7669255 75.3333292,52.3571098 L75.3333292,74.3211548 L46.8097337,74.3211548 L46.8097337,40.4245256 Z" id="Path" fill="#D1917B" fill-rule="nonzero" transform="translate(61.071531, 57.372840) rotate(144.380000) translate(-61.071531, -57.372840) "></path>
                        <circle id="Oval" fill="#D1917B" fill-rule="nonzero" cx="80.0696629" cy="59.4134831" r="4.23370787"></circle>
                        <circle id="Oval" fill="#D1917B" fill-rule="nonzero" cx="77.0157303" cy="51.1752809" r="4.23370787"></circle>
                        <circle id="Oval" fill="#D1917B" fill-rule="nonzero" cx="72.3235955" cy="44.1505618" r="4.23370787"></circle>
                        <circle id="Oval" fill="#D1917B" fill-rule="nonzero" cx="65.2651685" cy="38.7438202" r="4.23370787"></circle>
                        <polygon id="Rectangle" fill="#D1917B" fill-rule="nonzero" transform="translate(68.213180, 47.098151) rotate(-35.620000) translate(-68.213180, -47.098151) " points="63.1536291 42.8610719 73.2727302 42.8610719 73.2727302 51.3352292 63.1536291 51.3352292"></polygon>
                        <polygon id="Rectangle" fill="#D1917B" fill-rule="nonzero" transform="translate(72.909659, 54.120740) rotate(-35.620000) translate(-72.909659, -54.120740) " points="67.8501089 49.8836614 77.96921 49.8836614 77.96921 58.3578187 67.8501089 58.3578187"></polygon>
                        <path d="M22.3955056,75.9370787 L39.6134831,51.9101124 L59.3730337,66.0674157 L52.6853933,83.2382022 C51.0417039,87.4540675 47.5428175,90.6743154 43.2053359,91.9633027 C38.8678543,93.2522899 34.178172,92.4654726 30.4988764,89.8314607 L23.9123596,85.1123596 C20.9617403,82.9963416 20.2829056,78.8901461 22.3955056,75.9370787 Z" id="Path" fill="#D1917B" fill-rule="nonzero"></path>
                        <path d="M46.8097337,40.4245256 L63.4007449,40.4245256 C69.9909292,40.4245256 75.3333292,45.7669255 75.3333292,52.3571098 L75.3333292,74.3211548 L46.8097337,74.3211548 L46.8097337,40.4245256 Z" id="Path" fill="#D1917B" fill-rule="nonzero" transform="translate(61.071531, 57.372840) rotate(144.380000) translate(-61.071531, -57.372840) "></path>
                        <path d="M44.305618,68.1505618 L36.7078652,62.6966292 C35.3246717,61.703057 33.480312,61.6366175 32.0292135,62.5280899 L30.1213483,65.1505618 C29.71861,66.827511 30.3716256,68.5813243 31.7730337,69.5865169 L31.7730337,69.5865169 L39.3707865,75.0337079 L39.3707865,75.0337079 C40.6003421,75.9152306 42.2067852,76.0738311 43.5849841,75.4497661 C44.963183,74.8257011 45.9037566,73.5137808 46.0523998,72.008193 C46.2010431,70.5026052 45.5351736,69.0320845 44.305618,68.1505618 L44.305618,68.1505618 Z" id="Path" fill="#0039B2" fill-rule="nonzero" opacity="0.2" style="mix-blend-mode: multiply;"></path>
                        <path d="M65.6764045,40.5842697 C64.1389616,38.4489556 61.1648346,37.9577877 59.0224719,39.4853933 L59.0224719,39.4853933 L53.4876404,43.4494382 L51.5191011,42.0404494 C49.6179775,40.6921348 44.6831461,47.5617978 46.5842697,48.9303371 L45.3303371,48.0269663 C43.4292135,46.6786517 38.4876404,53.5550562 40.3955056,54.9168539 L40.3955056,54.9168539 L51.7483146,63.0539326 L51.7483146,63.0539326 L40.3955056,54.9168539 C38.4876404,53.5685393 33.552809,60.4382022 35.4539326,61.8067416 L35.4539326,61.8067416 L47.4404494,70.3955056 C49.3425471,71.6519986 51.8976929,71.1798122 53.2251061,69.3265113 C54.5525193,67.4732103 54.1771422,64.9020584 52.3752809,63.505618 L51.7483146,63.0539326 C52.9778702,63.9354553 54.5843133,64.0940558 55.9625121,63.4699908 C57.340711,62.8459257 58.2812846,61.5340055 58.4299279,60.0284177 C58.5785712,58.52283 57.9127017,57.0523093 56.6831461,56.1707865 L46.5707865,48.9303371 L46.5707865,48.9303371 L55.4292135,55.2808989 L55.4292135,55.2808989 C57.0904604,56.4725654 59.3659689,56.3068539 60.8370404,54.8870796 C62.3081119,53.4673053 62.5544501,51.1991085 61.4224719,49.4966292 L64.5707865,47.2449438 C65.6009296,46.5085029 66.2962047,45.3928869 66.5035645,44.1436704 C66.7109243,42.8944539 66.4133714,41.6140365 65.6764045,40.5842697 Z" id="Path" fill="#0039B2" fill-rule="nonzero" opacity="0.2" style="mix-blend-mode: multiply;"></path>
                        <circle id="Oval" fill="#FFC6B2" fill-rule="nonzero" cx="57.9033708" cy="45.0876404" r="4.23370787"></circle>
                        <circle id="Oval" fill="#FFC6B2" fill-rule="nonzero" cx="49.0516854" cy="38.7438202" r="4.23370787"></circle>
                        <polygon id="Rectangle" fill="#FFC6B2" fill-rule="nonzero" transform="translate(53.477575, 41.916574) rotate(35.630000) translate(-53.477575, -41.916574) " points="48.033755 37.6794957 58.9213954 37.6794957 58.9213954 46.153653 48.033755 46.153653"></polygon>
                        <circle id="Oval" fill="#F03232" fill-rule="nonzero" cx="56.5550562" cy="44.1235955" r="2.58202247"></circle>
                        <ellipse id="Oval" fill="#F03232" fill-rule="nonzero" transform="translate(58.948343, 45.840413) rotate(-54.370000) translate(-58.948343, -45.840413) " cx="58.9483429" cy="45.8404126" rx="2.58202247" ry="1.28764045"></ellipse>
                        <polygon id="Rectangle" fill="#F03232" fill-rule="nonzero" transform="translate(57.752747, 44.979975) rotate(-144.370000) translate(-57.752747, -44.979975) " points="56.2797136 42.4013235 59.2257811 42.4013235 59.2257811 47.5586269 56.2797136 47.5586269"></polygon>
                        <circle id="Oval" fill="#FFC6B2" fill-rule="nonzero" cx="54.2157303" cy="52.8741573" r="4.23370787"></circle>
                        <circle id="Oval" fill="#FFC6B2" fill-rule="nonzero" cx="42.8629213" cy="44.7303371" r="4.23370787"></circle>
                        <polygon id="Rectangle" fill="#FFC6B2" fill-rule="nonzero" transform="translate(48.544438, 48.802680) rotate(35.630000) translate(-48.544438, -48.802680) " points="41.5567973 44.5656011 55.5320782 44.5656011 55.5320782 53.0397584 41.5567973 53.0397584"></polygon>
                        <circle id="Oval" fill="#F03232" fill-rule="nonzero" cx="52.8674157" cy="51.9033708" r="2.58202247"></circle>
                        <ellipse id="Oval" fill="#F03232" fill-rule="nonzero" transform="translate(55.265473, 53.624436) rotate(-54.370000) translate(-55.265473, -53.624436) " cx="55.2654732" cy="53.6244365" rx="2.58202247" ry="1.28764045"></ellipse>
                        <polygon id="Rectangle" fill="#F03232" fill-rule="nonzero" transform="translate(54.062614, 52.761721) rotate(-144.370000) translate(-54.062614, -52.761721) " points="52.5895802 50.1830696 55.5356476 50.1830696 55.5356476 55.340373 52.5895802 55.340373"></polygon>
                        <circle id="Oval" fill="#FFC6B2" fill-rule="nonzero" cx="49.9078652" cy="60.2089888" r="4.23370787"></circle>
                        <circle id="Oval" fill="#FFC6B2" fill-rule="nonzero" cx="37.9213483" cy="51.6202247" r="4.23370787"></circle>
                        <polygon id="Rectangle" fill="#FFC6B2" fill-rule="nonzero" transform="translate(43.918594, 55.914171) rotate(35.630000) translate(-43.918594, -55.914171) " points="36.5466844 51.6770928 51.2905046 51.6770928 51.2905046 60.1512501 36.5466844 60.1512501"></polygon>
                        <circle id="Oval" fill="#F03232" fill-rule="nonzero" cx="48.5595506" cy="59.2449438" r="2.58202247"></circle>
                        <ellipse id="Oval" fill="#F03232" fill-rule="nonzero" transform="translate(50.954175, 60.959283) rotate(-54.370000) translate(-50.954175, -60.959283) " cx="50.954175" cy="60.9592831" rx="2.58202247" ry="1.28764045"></ellipse>
                        <polygon id="Rectangle" fill="#F03232" fill-rule="nonzero" transform="translate(49.754764, 60.106727) rotate(-144.370000) translate(-49.754764, -60.106727) " points="48.2817302 57.5280757 51.2277976 57.5280757 51.2277976 62.6853791 48.2817302 62.6853791"></polygon>
                        <circle id="Oval" fill="#FFC6B2" fill-rule="nonzero" cx="41.8382022" cy="64.847191" r="4.23370787"></circle>
                        <circle id="Oval" fill="#FFC6B2" fill-rule="nonzero" cx="34.2404494" cy="59.4067416" r="4.23370787"></circle>
                        <polygon id="Rectangle" fill="#FFC6B2" fill-rule="nonzero" transform="translate(38.040834, 62.125960) rotate(35.630000) translate(-38.040834, -62.125960) " points="33.365553 57.8888818 42.7161148 57.8888818 42.7161148 66.3630391 33.365553 66.3630391"></polygon>
                        <circle id="Oval" fill="#F03232" fill-rule="nonzero" cx="40.4898876" cy="63.8831461" r="2.58202247"></circle>
                        <ellipse id="Oval" fill="#F03232" fill-rule="nonzero" transform="translate(42.886455, 65.600720) rotate(-54.370000) translate(-42.886455, -65.600720) " cx="42.8864548" cy="65.6007203" rx="2.58202247" ry="1.28764045"></ellipse>
                        <polygon id="Rectangle" fill="#F03232" fill-rule="nonzero" transform="translate(41.693815, 64.746914) rotate(-144.370000) translate(-41.693815, -64.746914) " points="40.2207817 62.1682625 43.1668491 62.1682625 43.1668491 67.3255658 40.2207817 67.3255658"></polygon>
                        <circle id="Oval" fill="#FFC6B2" fill-rule="nonzero" cx="54.9707865" cy="41.5146067" r="4.76629213"></circle>
                        <circle id="Oval" fill="#FFC6B2" fill-rule="nonzero" cx="61.8" cy="36.6202247" r="4.76629213"></circle>
                        <polygon id="Rectangle" fill="#FFC6B2" fill-rule="nonzero" transform="translate(58.387779, 39.061973) rotate(144.380000) translate(-58.387779, -39.061973) " points="54.19115 34.2956809 62.5844084 34.2956809 62.5844084 43.8282652 54.19115 43.8282652"></polygon>
                        <path d="M58.2202247,39.1820225 C58.6674251,39.8077452 58.8476413,40.5855333 58.7212018,41.3441703 C58.5947622,42.1028073 58.1720319,42.7801044 57.5460674,43.2269663 C56.2449438,44.1573034 55.058427,43.4089888 54.1213483,42.1078652 C53.1842697,40.8067416 52.8606742,39.4449438 54.1685393,38.5078652 C54.7947395,38.0585296 55.5740984,37.8770609 56.3343788,38.0035635 C57.0946591,38.130066 57.7732647,38.5541245 58.2202247,39.1820225 L58.2202247,39.1820225 Z" id="Path" fill="#F03232" fill-rule="nonzero"></path>
                        <ellipse id="Oval" fill="#F03232" fill-rule="nonzero" transform="translate(53.793512, 42.360078) rotate(-35.620000) translate(-53.793512, -42.360078) " cx="53.7935119" cy="42.3600777" rx="1.4494382" ry="2.8988764"></ellipse>
                        <polygon id="Rectangle" fill="#F03232" fill-rule="nonzero" transform="translate(54.827830, 41.616990) rotate(-35.620000) translate(-54.827830, -41.616990) " points="53.5570432 38.7147433 56.0986163 38.7147433 56.0986163 44.5192376 53.5570432 44.5192376"></polygon>
                    </g>
                </g>
            </g>
        </g>
    </g>
</svg>