<?xml version="1.0" encoding="UTF-8"?>
<svg width="154px" height="112px" viewBox="0 0 154 112" version="1.1" xmlns="http://www.w3.org/2000/svg" xmlns:xlink="http://www.w3.org/1999/xlink">
    <!-- Generator: Sketch 60.1 (88133) - https://sketch.com -->
    <title>Asset 1</title>
    <desc>Created with Sketch.</desc>
    <g id="Page-1" stroke="none" stroke-width="1" fill="none" fill-rule="evenodd">
        <g id="Careers" transform="translate(-323.000000, -3268.000000)">
            <g id="How" transform="translate(270.000000, 3046.000000)">
                <g id="1" transform="translate(0.000000, 222.000000)">
                    <g id="Asset-1" transform="translate(53.000000, 0.000000)">
                        <circle id="Oval" fill="#DAE3F7" fill-rule="nonzero" cx="59.56" cy="50.5" r="50.5"></circle>
                        <rect id="Rectangle" fill="#FFC837" fill-rule="nonzero" x="10" y="35.5" width="143.99" height="30" rx="15"></rect>
                        <rect id="Rectangle" fill="#F5F6F7" fill-rule="nonzero" x="0" y="35.28" width="143.99" height="30.43" rx="15.21"></rect>
                        <rect id="Rectangle" fill="#829ED9" fill-rule="nonzero" x="10.86" y="48.45" width="5.38" height="11.48" rx="2.14"></rect>
                        <path d="M25,49.15 L25.81,46.57 C26.1595633,45.4677526 26.1907604,44.2891971 25.9,43.17 L25.84,42.94 C25.5529297,41.8328882 24.5537245,41.0598862 23.41,41.0598862 L23.05,41.0598862 C22.9271747,41.0572388 22.8085608,41.1048158 22.7216883,41.1916883 C22.6348158,41.2785608 22.5872388,41.3971747 22.59,41.52 L22.59,45 L16.21,51 L16.21,58 L17.83,58.6 C18.8966164,58.9911507 20.023924,59.1908839 21.16,59.1900029 L27.1,59.1900029 C28.6413133,59.1864709 29.9800557,58.1286992 30.34,56.63 L31.46,51.98 C31.6191987,51.3129557 31.4640696,50.6097395 31.0390044,50.0715835 C30.6139391,49.5334275 29.9657785,49.2196347 29.28,49.22 L25,49.15 Z" id="Path" fill="#C2D1F2" fill-rule="nonzero"></path>
                        <circle id="Oval" fill="#C2D1F2" fill-rule="nonzero" cx="127.36" cy="50.5" r="11.11"></circle>
                        <path d="M132.49,48.26 C132.70814,48.6940573 132.674277,49.2121818 132.401497,49.6141541 C132.128717,50.0161264 131.659745,50.2389846 131.175808,50.1966094 C130.691871,50.1542341 130.268768,49.8532628 130.07,49.41 L132.49,48.26 Z" id="Path" fill="#829ED9" fill-rule="nonzero"></path>
                        <line x1="129.47" y1="49.57" x2="133.73" y2="47.54" id="Path" stroke="#829ED9" stroke-width="1.5" stroke-linecap="round" stroke-linejoin="round"></line>
                        <path d="M122.24,48.26 C122.02186,48.6940573 122.055723,49.2121818 122.328503,49.6141541 C122.601283,50.0161264 123.070255,50.2389846 123.554192,50.1966094 C124.038129,50.1542341 124.461232,49.8532628 124.66,49.41 L122.24,48.26 Z" id="Path" fill="#829ED9" fill-rule="nonzero"></path>
                        <line x1="125.26" y1="49.57" x2="121" y2="47.54" id="Path" stroke="#829ED9" stroke-width="1.5" stroke-linecap="round" stroke-linejoin="round"></line>
                        <path d="M130.41,57.12 C129.247966,54.371888 126.080398,53.0833857 123.33,54.24" id="Path" stroke="#829ED9" stroke-width="1.5" stroke-linecap="round" stroke-linejoin="round"></path>
                        <circle id="Oval" fill="#F03232" fill-rule="nonzero" cx="59.56" cy="50.5" r="21.54"></circle>
                        <path d="M70.79,47.1 C70.7897279,44.4053737 69.0408218,42.0226072 66.4702027,41.2145676 C63.8995836,40.4065279 61.1019303,41.3601444 59.56,43.57 C58.2327583,41.8068943 56.0657308,40.8857924 53.8752156,41.1536646 C51.6847004,41.4215367 49.803489,42.8376867 48.9402156,44.8686646 C48.0769421,46.8996425 48.3627583,49.2368943 49.69,51 L49.69,51 L58,61.3 L58,61.3 C58.3816442,61.7829841 58.9644393,62.0633159 59.58,62.0600291 C60.1970793,62.0576001 60.7805828,61.7786928 61.17,61.3 L61.17,61.3 L69.44,51 L69.44,51 C70.3294563,49.8963356 70.806792,48.5173658 70.79,47.1 Z" id="Path" fill="#FFFFFF" fill-rule="nonzero"></path>
                        <circle id="Oval" fill="#C2D1F2" fill-rule="nonzero" cx="98.68" cy="50.5" r="11.11"></circle>
                        <path d="M105.51,50.5 C105.51,54.2721048 102.452105,57.33 98.68,57.33 C94.9078952,57.33 91.85,54.2721048 91.85,50.5 L105.51,50.5 Z" id="Path" fill="#F5F6F7" fill-rule="nonzero"></path>
                        <circle id="Oval" fill="#829ED9" fill-rule="nonzero" cx="95.4" cy="45.92" r="1.34"></circle>
                        <circle id="Oval" fill="#829ED9" fill-rule="nonzero" cx="101.96" cy="45.92" r="1.34"></circle>
                        <path d="M112.07,60.14 C110.938409,61.1458184 110.27054,62.5729427 110.223251,64.0861953 C110.175961,65.599448 110.753419,67.0654887 111.82,68.14 L107.67,64 C105.61093,61.8822972 102.268183,61.7079688 100,63.6 C98.8657814,64.6042556 98.1960079,66.0318725 98.1486898,67.5460528 C98.1013717,69.0602331 98.6806993,70.5268844 99.75,71.6 L95.43,67.3 C94.4001837,66.2685988 93.0025014,65.6890302 91.545,65.6890302 C90.0874986,65.6890302 88.6898163,66.2685988 87.66,67.3 L87.66,67.3 C86.6285988,68.3298163 86.0490302,69.7274986 86.0490302,71.185 C86.0490302,72.6425014 86.6285988,74.0401837 87.66,75.07 L75.19,62.6 C73.1264509,60.4774121 69.7730046,60.3114863 67.51,62.22 C66.373139,63.2226795 65.7014466,64.6507931 65.6540992,66.1659094 C65.6067518,67.6810256 66.1879636,69.1482925 67.26,70.22 L90.41,93.37 L96.12,99.08 L85.53,99.08 C82.2021845,99.0311901 79.4031142,101.56389 79.12,104.88 C79.0122661,106.583763 79.6141074,108.256196 80.7827787,109.500632 C81.95145,110.745069 83.5828347,111.45064 85.29,111.45 L103.18,111.45 C109.367932,111.450599 115.302847,108.993903 119.68,104.62 L129.19,95.11 C132.53335,91.7711638 134.412004,87.2400202 134.412004,82.515 C134.412004,77.7899798 132.53335,73.2588362 129.19,69.92 L119.75,60.47 C117.672968,58.3623089 114.320172,58.2182435 112.07,60.14 L112.07,60.14 Z" id="Path" fill="#0039B2" fill-rule="nonzero" opacity="0.2" style="mix-blend-mode: multiply;"></path>
                        <path d="M112.07,55.14 C110.938409,56.1458184 110.27054,57.5729427 110.223251,59.0861953 C110.175961,60.599448 110.753419,62.0654887 111.82,63.14 L107.67,59 C105.61093,56.8822972 102.268183,56.7079688 100,58.6 C98.8657814,59.6042556 98.1960079,61.0318725 98.1486898,62.5460528 C98.1013717,64.0602331 98.6806993,65.5268844 99.75,66.6 L95.43,62.3 C94.4001837,61.2685988 93.0025014,60.6890302 91.545,60.6890302 C90.0874986,60.6890302 88.6898163,61.2685988 87.66,62.3 L87.66,62.3 C86.6285988,63.3298163 86.0490302,64.7274986 86.0490302,66.185 C86.0490302,67.6425014 86.6285988,69.0401837 87.66,70.07 L75.19,57.6 C73.1264509,55.4774121 69.7730046,55.3114863 67.51,57.22 C66.373139,58.2226795 65.7014466,59.6507931 65.6540992,61.1659094 C65.6067518,62.6810256 66.1879636,64.1482925 67.26,65.22 L90.41,88.37 L96.12,94.08 L85.53,94.08 C82.2021845,94.0311901 79.4031142,96.5638901 79.12,99.88 C79.0122661,101.583763 79.6141074,103.256196 80.7827787,104.500632 C81.95145,105.745069 83.5828347,106.45064 85.29,106.45 L103.18,106.45 C109.367932,106.450599 115.302847,103.993903 119.68,99.62 L129.19,90.11 C132.53335,86.7711638 134.412004,82.2400202 134.412004,77.515 C134.412004,72.7899798 132.53335,68.2588362 129.19,64.92 L119.75,55.47 C117.672968,53.3623089 114.320172,53.2182435 112.07,55.14 L112.07,55.14 Z" id="Path" fill="#FFC6B2" fill-rule="nonzero"></path>
                        <line x1="87.66" y1="70.07" x2="91.97" y2="74.38" id="Path" stroke="#000000" fill="#FFFFFF" fill-rule="nonzero" stroke-linecap="round" stroke-linejoin="round"></line>
                        <line x1="45.02" y1="13.57" x2="45.02" y2="22.56" id="Path" stroke="#000000" stroke-linecap="round"></line>
                        <line x1="38.63" y1="28.96" x2="29.64" y2="28.96" id="Path" stroke="#000000" stroke-linecap="round"></line>
                        <line x1="34.15" y1="18.08" x2="40.5" y2="24.44" id="Path" stroke="#000000" stroke-linecap="round"></line>
                        <line x1="89.48" y1="28.96" x2="80.49" y2="28.96" id="Path" stroke="#000000" stroke-linecap="round"></line>
                        <line x1="74.1" y1="22.56" x2="74.1" y2="13.58" id="Path" stroke="#000000" stroke-linecap="round"></line>
                        <line x1="84.98" y1="18.08" x2="78.62" y2="24.44" id="Path" stroke="#000000" stroke-linecap="round"></line>
                    </g>
                </g>
            </g>
        </g>
    </g>
</svg>