<?xml version="1.0" encoding="UTF-8"?>
<svg width="136px" height="120px" viewBox="0 0 136 120" version="1.1" xmlns="http://www.w3.org/2000/svg" xmlns:xlink="http://www.w3.org/1999/xlink">
    <!-- Generator: Sketch 60.1 (88133) - https://sketch.com -->
    <title>Asset 2</title>
    <desc>Created with Sketch.</desc>
    <g id="Page-1" stroke="none" stroke-width="1" fill="none" fill-rule="evenodd">
        <g id="Careers" transform="translate(-652.000000, -3504.000000)">
            <g id="How" transform="translate(270.000000, 3046.000000)">
                <g id="5" transform="translate(320.000000, 458.000000)">
                    <g id="Asset-2" transform="translate(62.000000, 0.000000)">
                        <rect id="Rectangle" fill="#1258FF" fill-rule="nonzero" x="6.93641618" y="8.49710983" width="99.8843931" height="76.9942197" rx="5"></rect>
                        <path d="M3.46820809,8.49710983 L96.416185,8.49710983 C98.3316234,8.49710983 99.8843931,10.0498795 99.8843931,11.9653179 L99.8843931,64.6820809 L0,64.6820809 L0,11.9653179 C0,10.0498795 1.55276965,8.49710983 3.46820809,8.49710983 Z" id="Path" fill="#DAE3F7" fill-rule="nonzero"></path>
                        <path d="M0,64.6820809 L99.8843931,64.6820809 L99.8843931,82.0231214 C99.8843931,83.9385598 98.3316234,85.4913295 96.416185,85.4913295 L3.46820809,85.4913295 C1.55276965,85.4913295 0,83.9385598 0,82.0231214 L0,64.6820809 L0,64.6820809 Z" id="Path" fill="#F5F6F7" fill-rule="nonzero"></path>
                        <circle id="Oval" fill="#1258FF" fill-rule="nonzero" cx="11.7919075" cy="75.0867052" r="4.85549133"></circle>
                        <polygon id="Path" fill="#FFFFFF" fill-rule="nonzero" points="14.6011561 74.9618497 10.4046243 72.5410405 10.4046243 77.3895954"></polygon>
                        <line x1="26.3583815" y1="75.0867052" x2="91.5606936" y2="75.0867052" id="Path" stroke="#DAE3F7" stroke-width="2" stroke-linecap="round"></line>
                        <line x1="26.3583815" y1="75.0867052" x2="65.2023121" y2="75.0867052" id="Path" stroke="#1258FF" stroke-width="2" stroke-linecap="round" stroke-linejoin="round"></line>
                        <path d="M51.8358382,1.4982659 L55.4150289,13.6578035 C55.607865,14.3193233 56.1156602,14.8424916 56.7711363,15.0549658 C57.4266125,15.2674401 58.1447641,15.1416656 58.6890173,14.7190751 L68.732948,6.9849711 C69.4643316,6.41082122 70.4878555,6.39155897 71.240324,6.93778343 C71.9927925,7.4840079 72.2915703,8.46314225 71.9722543,9.33641618 L67.7202312,21.2809249 C67.4909035,21.9285316 67.5959929,22.6475932 68.0010632,23.202484 C68.4061335,23.7573748 69.0589762,24.0765764 69.7456647,24.0554913 L82.4115607,23.7086705 C83.3381294,23.6763422 84.1743215,24.2608993 84.4621941,25.1422075 C84.7500667,26.0235156 84.4201725,26.9889659 83.6531792,27.5098266 L73.1930636,34.6820809 C72.6118366,35.0676233 72.2624132,35.7187126 72.2624132,36.416185 C72.2624132,37.1136574 72.6118366,37.7647467 73.1930636,38.150289 L83.6531792,45.2878613 C84.4201725,45.808722 84.7500667,46.7741722 84.4621941,47.6554804 C84.1743215,48.5367886 83.3381294,49.1213457 82.4115607,49.0890173 L69.7456647,48.7421965 C69.0589762,48.7211115 68.4061335,49.0403131 68.0010632,49.5952039 C67.5959929,50.1500947 67.4909035,50.8691562 67.7202312,51.516763 L71.9722543,63.4612717 C72.2915703,64.3345456 71.9927925,65.31368 71.240324,65.8599044 C70.4878555,66.4061289 69.4643316,66.3868666 68.732948,65.8127168 L58.6890173,58.0855491 C58.1438083,57.6630886 57.4246969,57.5382259 56.7689868,57.7521652 C56.1132767,57.9661045 55.6061771,58.4910445 55.4150289,59.1537572 L51.8358382,71.3132948 C51.5809515,72.2071574 50.7641753,72.8235861 49.8346821,72.8235861 C48.9051889,72.8235861 48.0884127,72.2071574 47.833526,71.3132948 L44.2543353,59.1537572 C44.063187,58.4910445 43.5560875,57.9661045 42.9003774,57.7521652 C42.2446673,57.5382259 41.5255558,57.6630886 40.9803468,58.0855491 L30.9364162,65.8196532 C30.2050326,66.3938031 29.1815087,66.4130653 28.4290402,65.8668408 C27.6765717,65.3206164 27.3777939,64.341482 27.6971098,63.4682081 L31.9491329,51.5236994 C32.1784606,50.8760926 32.0733713,50.1570311 31.668301,49.6021403 C31.2632307,49.0472495 30.610388,48.7280479 29.9236994,48.7491329 L17.2508671,49.0959538 C16.3256212,49.1249883 15.4924386,48.5393316 15.2064625,47.6589109 C14.9204865,46.7784903 15.2504831,45.8150126 16.016185,45.2947977 L26.4763006,38.150289 C27.0575276,37.7647467 27.4069509,37.1136574 27.4069509,36.416185 C27.4069509,35.7187126 27.0575276,35.0676233 26.4763006,34.6820809 L16.016185,27.516763 C15.2504831,26.9965481 14.9204865,26.0330704 15.2064625,25.1526498 C15.4924386,24.2722291 16.3256212,23.6865724 17.2508671,23.7156069 L29.9236994,24.0624277 C30.610388,24.0835128 31.2632307,23.7643112 31.668301,23.2094204 C32.0733713,22.6545296 32.1784606,21.935468 31.9491329,21.2878613 L27.6971098,9.33641618 C27.3777939,8.46314225 27.6765717,7.4840079 28.4290402,6.93778343 C29.1815087,6.39155897 30.2050326,6.41082122 30.9364162,6.9849711 L40.9803468,14.7190751 C41.5246,15.1416656 42.2427517,15.2674401 42.8982278,15.0549658 C43.5537039,14.8424916 44.0614992,14.3193233 44.2543353,13.6578035 L47.8612717,1.4982659 C48.1316304,0.627775129 48.9370463,0.0345554199 49.8485549,0.0345554199 C50.7600636,0.0345554199 51.5654794,0.627775129 51.8358382,1.4982659 Z" id="Path" fill="#E7EDFA" fill-rule="nonzero"></path>
                        <path d="M46.8346821,26.3583815 L57.100578,36.0693642 C57.3942608,36.3365164 57.5648796,36.7128814 57.5722543,37.1098266 L57.5722543,45.9676301 C57.5781317,46.2241944 57.4229042,46.4570357 57.183815,46.550289 C56.9501022,46.6554392 56.6760102,46.6088436 56.4901734,46.4323699 L46.2312139,36.7630058 C45.9453652,36.4835611 45.7830404,36.1014734 45.7803468,35.7017341 L45.7803468,26.8439306 C45.7702118,26.5902572 45.9199268,26.357367 46.1549133,26.2612717 C46.3878026,26.1499644 46.66553,26.1971781 46.8485549,26.3791908 M59.2578035,36.3676301 L65.7572254,31.9491329 C65.9227859,31.8321372 66.0212263,31.6420335 66.0212263,31.4393064 C66.0212263,31.2365792 65.9227859,31.0464756 65.7572254,30.9294798 L59.2578035,26.5109827 C59.0639707,26.3616529 58.8002355,26.3408955 58.5854281,26.4580632 C58.3706206,26.5752309 58.2452861,26.8082081 58.265896,27.0520231 L58.265896,35.8473988 C58.2569068,36.0801555 58.3842174,36.2968545 58.5919075,36.4023121 C58.7915232,36.5264483 59.044315,36.5264483 59.2439306,36.4023121 M34.3699422,26.3930636 L44.6150289,36.0693642 C44.9087116,36.3365164 45.0793304,36.7128814 45.0867402,37.1098266 L45.0867402,45.9468208 C45.0893734,46.2025257 44.9391401,46.4351309 44.7049655,46.5378656 C44.470791,46.6406002 44.1979021,46.5936229 44.0115607,46.4184971 L33.766474,36.7630058 C33.4675248,36.4909412 33.2964157,36.1059458 33.2946903,35.7017341 L33.2946903,26.8647399 C33.2900311,26.6068308 33.4443812,26.3725494 33.683237,26.2751445 C33.9174229,26.1738013 34.1893373,26.2200268 34.3768786,26.3930636" id="Shape" fill="#C2D1F2" fill-rule="nonzero"></path>
                        <path d="M86.7052078,79.5676301 C86.7015097,77.9202588 85.6314504,76.4649523 84.060111,75.970242 C82.4887717,75.4755317 80.7779911,76.0553367 79.8312139,77.4034682 C78.1667301,75.6846089 75.5524973,75.3043175 73.4672789,76.4777089 C71.3820604,77.6511003 70.350326,80.0830458 70.9556851,82.3978943 C71.5610441,84.7127429 73.651238,86.3282688 76.0439306,86.3306358 L76.1132948,86.3306358 C76.4269372,88.1301464 77.7984147,89.5608813 79.5830575,89.9503164 C81.3677003,90.3397516 83.2105345,89.6104265 84.2453266,88.1051641 C85.2801188,86.5999018 85.3010438,84.6181058 84.2982659,83.0913295 C85.751462,82.5267636 86.7078468,81.1266382 86.7052078,79.5676301 L86.7052078,79.5676301 Z" id="Path" fill="#FFE39B" fill-rule="nonzero"></path>
                        <path d="M109.720231,115.657803 C111.332266,115.31697 112.536764,113.969601 112.695525,112.329595 C112.854286,110.689589 111.930598,109.1362 110.413873,108.492486 C111.750215,106.505967 111.577924,103.867929 109.994554,102.072098 C108.411185,100.276267 105.815501,99.774914 103.677247,100.851918 C101.538993,101.928923 100.396678,104.313046 100.89711,106.654335 C100.893883,106.677344 100.893883,106.700691 100.89711,106.723699 C99.1833811,107.3896 98.0479734,109.032063 98.0304708,110.870536 C98.0129682,112.709009 99.1168998,114.372792 100.81764,115.071199 C102.51838,115.769605 104.473001,115.361813 105.752601,114.041618 C106.608803,115.35491 108.190074,115.99903 109.720231,115.657803 Z" id="Path" fill="#FFF4D7" fill-rule="nonzero"></path>
                        <path d="M95.500578,106.453179 C95.500578,106.453179 95.500578,106.404624 95.500578,106.383815 C95.5122882,103.610616 93.3707374,101.303822 90.6043128,101.109751 C87.8378882,100.915681 85.3952443,102.900883 85.0196532,105.648555 C84.809056,105.60994 84.595591,105.589057 84.3815029,105.586127 C82.514968,105.583323 80.9257667,106.943231 80.6400342,108.787768 C80.3543017,110.632305 81.457574,112.409297 83.2374765,112.971353 C85.017379,113.53341 86.9410858,112.712275 87.766474,111.03815 C88.5252559,111.439298 89.3706074,111.64885 90.2289017,111.648555 L90.2982659,111.648555 C90.6877379,113.899294 92.7033609,115.500015 94.9838241,115.369625 C97.2642873,115.239234 99.084321,113.419201 99.2147115,111.138737 C99.3451021,108.858274 97.7443806,106.842651 95.4936416,106.453179 L95.500578,106.453179 Z" id="Path" fill="#FFE39B" fill-rule="nonzero"></path>
                        <path d="M112.369942,83.750289 C112.390648,83.7532299 112.411665,83.7532299 112.43237,83.750289 C115.078943,84.4018927 117.78526,82.9258015 118.670393,80.3479194 C119.555526,77.7700374 118.32678,74.9428161 115.83815,73.8312139 C115.925303,73.638294 115.9972,73.4388391 116.053179,73.2346821 C116.530401,71.4351689 115.623862,69.5565271 113.91822,68.8103551 C112.212578,68.0641832 110.217624,68.6735015 109.219972,70.2453404 C108.222319,71.8171794 108.520152,73.8817383 109.921387,75.1075145 C109.335266,75.7347654 108.91348,76.4973161 108.693642,77.3271676 C108.693642,77.3271676 108.693642,77.3757225 108.693642,77.3965318 C106.418315,77.1961698 104.354517,78.7341527 103.896041,80.971798 C103.437566,83.2094434 104.730217,85.4351358 106.900998,86.1457457 C109.071779,86.8563555 111.430339,85.8258948 112.383815,83.750289 L112.369942,83.750289 Z" id="Path" fill="#FFE39B" fill-rule="nonzero"></path>
                        <path d="M106.127168,64.6127168 C105.229107,63.2294552 103.536767,62.5896716 101.948216,63.0328774 C100.359664,63.4760831 99.242981,64.8995842 99.1907514,66.5479769 C96.8573677,66.0146869 94.4579131,67.1225167 93.3504473,69.2444492 C92.2429816,71.3663817 92.7062613,73.9683119 94.4780763,75.5775818 C96.2498913,77.1868516 98.8842637,77.3983968 100.890173,76.0924855 C100.890173,76.0924855 100.924855,76.0924855 100.945665,76.0508671 C102.18941,77.3930453 104.122655,77.8472718 105.833973,77.1994021 C107.545291,76.5515324 108.693039,74.930906 108.736113,73.1015646 C108.779187,71.2722232 107.708987,69.5993729 106.030058,68.8716763 C106.937336,67.607796 106.975897,65.9166363 106.127168,64.6127168 L106.127168,64.6127168 Z" id="Path" fill="#FFF4D7" fill-rule="nonzero"></path>
                        <path d="M81.4265896,90.1734104 L81.3849711,90.1179191 C79.9083816,87.7745297 80.5000474,84.6877837 82.7385016,83.0564919 C84.9769559,81.4252001 88.0965808,81.8073127 89.8751445,83.9306358 C90.0299583,83.7838938 90.1996636,83.6537089 90.3815029,83.5421965 C91.9630355,82.558996 94.0253504,82.8765833 95.2378076,84.2900458 C96.4502649,85.7035083 96.4502649,87.7901334 95.2378076,89.2035958 C94.0253504,90.6170583 91.9630355,90.9346456 90.3815029,89.9514451 C89.953926,90.6975829 89.3487325,91.326603 88.6196532,91.782659 L88.5572254,91.782659 C89.4484008,93.8947552 88.6073159,96.3391073 86.6051916,97.4556388 C84.6030674,98.5721703 82.0814739,98.0030948 80.7529458,96.1348985 C79.4244177,94.2667023 79.7146748,91.6980388 81.4265896,90.1734104 L81.4265896,90.1734104 Z" id="Path" fill="#FFF4D7" fill-rule="nonzero"></path>
                        <path d="M95.8751445,74.7815029 C95.8751445,74.7815029 95.8751445,74.8231214 95.8751445,74.8508671 C96.1697651,77.5912384 94.3009804,80.0950224 91.5900054,80.5920649 C88.8790305,81.0891073 86.2435475,79.4111561 85.5468208,76.7445087 C85.340521,76.8047058 85.1292889,76.846488 84.9156069,76.8693642 C83.0656738,77.0686629 81.3465887,75.8897394 80.8660381,74.0922289 C80.3854875,72.2947185 81.2869266,70.415218 82.9895162,69.6647772 C84.6921057,68.9143363 86.6875848,69.5169784 87.6901734,71.0843931 C88.3978524,70.5967056 89.2152016,70.291689 90.0693642,70.1965318 L90.1387283,70.1965318 C90.2756163,67.9168138 92.1003059,66.1021434 94.380743,65.9778095 C96.6611802,65.8534756 98.6723459,67.4590076 99.0562751,69.7103296 C99.4402043,71.9616517 98.0748345,74.1430012 95.8820809,74.7815029 L95.8751445,74.7815029 Z" id="Path" fill="#FFE39B" fill-rule="nonzero"></path>
                        <path d="M104.046243,99.4473988 C104.050123,99.4703574 104.050123,99.4938045 104.046243,99.516763 C104.368261,102.273077 102.49551,104.806095 99.7658877,105.30622 C97.0362654,105.806345 94.3871084,104.101839 93.7109827,101.410405 C93.5068838,101.469963 93.2980112,101.511738 93.0867052,101.53526 C91.236772,101.734559 89.5176869,100.555635 89.0371364,98.7581249 C88.5565858,96.9606144 89.4580249,95.081114 91.1606144,94.3306731 C92.863204,93.5802323 94.8586831,94.1828743 95.8612717,95.750289 C96.5684117,95.2615678 97.3860298,94.9564509 98.2404624,94.8624277 L98.3098266,94.8624277 C98.4457446,92.5814529 100.271382,90.7654475 102.553044,90.6415974 C104.834706,90.5177474 106.846185,92.1254717 107.228203,94.3783327 C107.61022,96.6311936 106.241187,98.8121512 104.046243,99.4473988 L104.046243,99.4473988 Z" id="Path" fill="#FFE39B" fill-rule="nonzero"></path>
                        <path d="M93.7317919,79.8381503 C94.629853,78.4548887 96.3221928,77.8151051 97.910744,78.2583109 C99.4992952,78.7015167 100.615979,80.1250178 100.668208,81.7734104 C103.001747,81.2425422 105.399747,82.352326 106.505329,84.4748038 C107.610912,86.5972815 107.145887,89.1983927 105.373385,90.8063292 C103.600883,92.4142657 100.966902,92.6244366 98.9618497,91.3179191 C98.9618497,91.3179191 98.9618497,91.3179191 98.9063584,91.2763006 C97.6626129,92.6184788 95.7293685,93.0727053 94.0180503,92.4248356 C92.306732,91.776966 91.158984,90.1563395 91.1159103,88.3269981 C91.0728365,86.4976568 92.1430362,84.8248064 93.8219653,84.0971098 C92.9206819,82.830504 92.8849269,81.141769 93.7317919,79.8381503 L93.7317919,79.8381503 Z" id="Path" fill="#FFF4D7" fill-rule="nonzero"></path>
                        <path d="M74.5456647,90.867052 C75.4497355,89.4924083 77.1390842,88.8603535 78.7234423,89.3039738 C80.3078003,89.747594 81.4232983,91.1650059 81.4820809,92.8092486 C83.8221645,92.2606168 86.2367204,93.366487 87.349884,95.4967111 C88.4630476,97.6269352 87.9921666,100.240611 86.2055588,101.848411 C84.418951,103.456211 81.7702686,103.649885 79.7687861,102.319075 L79.7063584,102.277457 C78.4606032,103.616431 76.5277755,104.067099 74.8182811,103.417186 C73.1087867,102.767272 71.9635225,101.146379 71.9219339,99.3179838 C71.8803454,97.4895886 72.9507258,95.8182986 74.6289017,95.0913295 C73.7415394,93.8322169 73.7085922,92.1601436 74.5456647,90.867052 Z" id="Path" fill="#FFF4D7" fill-rule="nonzero"></path>
                        <path d="M106.009249,85.3179191 C106.90731,83.9346575 108.599649,83.2948739 110.188201,83.7380797 C111.776752,84.1812854 112.893435,85.6047866 112.945665,87.2531792 C115.279048,86.7198893 117.678503,87.8277191 118.785969,89.9496515 C119.893435,92.071584 119.430155,94.6735142 117.65834,96.2827841 C115.886525,97.8920539 113.252152,98.1035991 111.246243,96.7976879 L111.183815,96.7630058 C109.927226,98.0781157 108.001894,98.5062472 106.306402,97.8475849 C104.610909,97.1889225 103.479523,95.5733224 103.440279,93.7548089 C103.401035,91.9362954 104.461669,90.2733905 106.127168,89.5421965 C105.229127,88.2902309 105.182448,86.618033 106.009249,85.3179191 Z" id="Path" fill="#FFF4D7" fill-rule="nonzero"></path>
                        <path d="M117.981503,77.9861272 C118.885574,76.6114834 120.574922,75.9794287 122.15928,76.4230489 C123.743638,76.8666692 124.859136,78.284081 124.917919,79.9283237 C127.250001,79.3991088 129.645816,80.5081222 130.751365,82.6286022 C131.856913,84.7490822 131.394451,87.3483076 129.62534,88.9573195 C127.856229,90.5663313 125.224917,90.780903 123.218497,89.4797688 L123.163006,89.4381503 C121.916815,90.7734573 119.986506,91.2218824 118.279297,90.5726718 C116.572088,89.9234611 115.427491,88.3057224 115.383452,86.4797717 C115.339412,84.6538209 116.404687,82.9827827 118.078613,82.2520231 C117.168182,80.9866284 117.129597,79.2916401 117.981503,77.9861272 L117.981503,77.9861272 Z" id="Path" fill="#FFE39B" fill-rule="nonzero"></path>
                        <path d="M116.774566,95.7225434 L116.712139,95.7225434 C114.020762,95.0453264 111.265859,96.5736287 110.41577,99.2154999 C109.565681,101.857371 110.912368,104.705464 113.493642,105.724855 C113.409841,105.92074 113.340296,106.122421 113.285549,106.328324 C112.834359,108.140894 113.774614,110.011278 115.498513,110.730416 C117.222411,111.449553 119.21311,110.80184 120.183776,109.205973 C121.154442,107.610105 120.814059,105.544541 119.382659,104.344509 C119.955148,103.703143 120.362322,102.931655 120.568786,102.09711 C120.568786,102.09711 120.568786,102.048555 120.568786,102.027746 C122.847351,102.185478 124.881932,100.609297 125.298574,98.3636018 C125.715215,96.1179064 124.38143,93.9167968 122.197926,93.2466862 C120.014422,92.5765755 117.675524,93.6505499 116.760694,95.7433526 L116.774566,95.7225434 Z" id="Path" fill="#FFF4D7" fill-rule="nonzero"></path>
                        <path d="M132.131792,86.3445087 C132.131792,104.56799 117.358741,119.34104 99.1352601,119.34104 C80.9117791,119.34104 66.1387283,104.56799 66.1387283,86.3445087 L132.131792,86.3445087 Z" id="Path" fill="#C2D1F2" fill-rule="nonzero" opacity="0.25"></path>
                        <rect id="Rectangle" fill="#C2D1F2" fill-rule="nonzero" x="62.6011561" y="83.5699422" width="73.0751445" height="5.54913295" rx="2.77456647"></rect>
                        <line x1="122.94104" y1="119.34104" x2="79.6924855" y2="119.34104" id="Path" stroke="#000000" stroke-linecap="round"></line>
                        <line x1="74.2820809" y1="119.34104" x2="64.0369942" y2="119.34104" id="Path" stroke="#000000" stroke-linecap="round"></line>
                        <line x1="126.062428" y1="69.7803468" x2="119.82659" y2="69.7803468" id="Path" stroke="#000000" stroke-linecap="round"></line>
                        <line x1="115.39422" y1="65.3479769" x2="115.39422" y2="59.1121387" id="Path" stroke="#000000" stroke-linecap="round"></line>
                        <line x1="122.94104" y1="62.233526" x2="118.52948" y2="66.6450867" id="Path" stroke="#000000" stroke-linecap="round"></line>
                    </g>
                </g>
            </g>
        </g>
    </g>
</svg>