<?xml version="1.0" encoding="UTF-8"?>
<svg width="101px" height="120px" viewBox="0 0 101 120" version="1.1" xmlns="http://www.w3.org/2000/svg" xmlns:xlink="http://www.w3.org/1999/xlink">
    <!-- Generator: Sketch 60.1 (88133) - https://sketch.com -->
    <title>Asset 5</title>
    <desc>Created with Sketch.</desc>
    <g id="Page-1" stroke="none" stroke-width="1" fill="none" fill-rule="evenodd">
        <g id="Careers" transform="translate(-349.000000, -3504.000000)">
            <g id="How" transform="translate(270.000000, 3046.000000)">
                <g id="4" transform="translate(0.000000, 458.000000)">
                    <g id="Asset-5" transform="translate(80.000000, 0.000000)">
                        <line x1="0.375" y1="46.3725" x2="6.7425" y2="46.3725" id="Path" stroke="#000000" stroke-linecap="round"></line>
                        <line x1="11.2725" y1="41.8425" x2="11.2725" y2="35.475" id="Path" stroke="#000000" stroke-linecap="round"></line>
                        <line x1="3.5625" y1="38.6625" x2="8.07" y2="43.17" id="Path" stroke="#000000" stroke-linecap="round"></line>
                        <path d="M96,38.175 C96,21.615 84.0825,7.2 62.175,7.2 C45.675,7.2 25.425,19.575 25.425,45.2025 C25.5018835,60.3918602 26.503738,75.5624412 28.425,90.63 C28.7885143,93.4451932 30.7102161,95.8139373 33.39,96.75 C36.7401848,97.9294672 40.2247231,98.6853323 43.7625,99 L47.3625,119.925 L69.6,119.925 C77.2110964,119.922593 84.4163704,116.492517 89.2169672,110.586328 C94.0175639,104.680139 95.9029169,96.9259895 94.35,89.475 L87.975,58.8075 C93.63,53.0775 96,46.1475 96,38.175 Z" id="Path" fill="#D1917B" fill-rule="nonzero"></path>
                        <path d="M83.895,53.7225 C83.895,50.2762432 81.1012568,47.4825 77.655,47.4825 L54.075,47.4825" id="Path" stroke="#000000" stroke-linecap="round"></path>
                        <path d="M30.2475,47.4825 C30.34037,45.3359178 32.1076597,43.643435 34.25625,43.643435 C36.4048403,43.643435 38.17213,45.3359178 38.265,47.4825" id="Path" stroke="#000000" stroke-linecap="round"></path>
                        <path d="M22.77,41.7975 L24.33,46.605 C24.5013281,47.1271624 24.9879511,47.4807952 25.5375,47.4825 L30.5925,47.4825 C31.1240466,47.4947367 31.5907079,47.8393163 31.7588422,48.3437193 C31.9269765,48.8481223 31.7603952,49.4037827 31.3425,49.7325 L27.255,52.7325 C26.810903,53.0555505 26.6235531,53.6266653 26.79,54.15 L28.3575,58.965 C28.5221672,59.4860172 28.3344015,60.0539167 27.8916103,60.3740887 C27.4488192,60.6942608 26.850684,60.6946281 26.4075,60.375 L22.32,57.375 C21.8728864,57.0497727 21.2671136,57.0497727 20.82,57.375 L16.7325,60.375 C16.289316,60.6946281 15.6911808,60.6942608 15.2483897,60.3740887 C14.8055985,60.0539167 14.6178328,59.4860172 14.7825,58.965 L16.35,54.15 C16.5164469,53.6266653 16.329097,53.0555505 15.885,52.7325 L11.7975,49.7325 C11.3796048,49.4037827 11.2130235,48.8481223 11.3811578,48.3437193 C11.5492921,47.8393163 12.0159534,47.4947367 12.5475,47.4825 L17.6025,47.4825 C18.1520489,47.4807952 18.6386719,47.1271624 18.81,46.605 L20.37,41.7975 C20.5447525,41.2836643 21.027261,40.938113 21.57,40.938113 C22.112739,40.938113 22.5952475,41.2836643 22.77,41.7975 Z" id="Path" stroke="#1258FF" stroke-width="1.5" fill-opacity="0.5" fill="#D0DEFF" fill-rule="nonzero" stroke-linecap="round" stroke-linejoin="round"></path>
                        <path d="M48.6075,41.7975 L50.175,46.605 C50.3394003,47.1289236 50.8258928,47.4846712 51.375,47.4825 L56.4375,47.4825 C56.9644668,47.5031325 57.4235981,47.8479032 57.5903673,48.3482109 C57.7571365,48.8485185 57.596694,49.3998139 57.1875,49.7325 L53.0925,52.7325 C52.6471479,53.0546366 52.4620006,53.6282896 52.635,54.15 L54.195,58.965 C54.3665719,59.4854979 54.182017,60.0572067 53.738496,60.3791448 C53.294975,60.7010828 52.6942182,60.6994072 52.2525,60.375 L48.1575,57.375 C47.7119622,57.044963 47.1030378,57.044963 46.6575,57.375 L42.5625,60.375 C42.1207818,60.6994072 41.520025,60.7010828 41.076504,60.3791448 C40.632983,60.0572067 40.4484281,59.4854979 40.62,58.965 L42.18,54.15 C42.3529994,53.6282896 42.1678521,53.0546366 41.7225,52.7325 L37.6275,49.7325 C37.218306,49.3998139 37.0578635,48.8485185 37.2246327,48.3482109 C37.3914019,47.8479032 37.8505332,47.5031325 38.3775,47.4825 L43.44,47.4825 C43.9891072,47.4846712 44.4755997,47.1289236 44.64,46.605 L46.2075,41.7975 C46.3745512,41.2757198 46.8596308,40.9216875 47.4075,40.9216875 C47.9553692,40.9216875 48.4404488,41.2757198 48.6075,41.7975 L48.6075,41.7975 Z" id="Path" stroke="#1258FF" stroke-width="1.5" fill-opacity="0.5" fill="#D0DEFF" fill-rule="nonzero" stroke-linecap="round" stroke-linejoin="round"></path>
                        <path d="M33.555,53.775 C33.4031937,53.394138 33.0793779,53.1081194 32.6826851,53.0045056 C32.2859923,52.9008919 31.8636672,52.9920229 31.545,53.25 C25.1175,58.3575 19.0575,63.9825 22.6275,67.95 C24.75,70.275 30.06,70.38 34.1625,70.05 C35.4493419,69.9475363 36.6121542,69.243199 37.298991,68.1501684 C37.9858278,67.0571377 38.1159598,65.7038863 37.65,64.5 L33.555,53.775 Z" id="Path" fill="#C16C4F" fill-rule="nonzero"></path>
                        <path d="M63.075,95.1825 C57.0820648,98.1218495 50.423062,99.438134 43.7625,99 L46.065,112.365 C46.065,112.365 57.63,111.6075 63.075,95.1825 Z" id="Path" fill="#0039B2" fill-rule="nonzero" opacity="0.2" style="mix-blend-mode: multiply;"></path>
                        <path d="M33.3975,96.75 C36.745021,97.9297667 40.2271174,98.6856487 43.7625,99 C50.4250558,99.4311616 57.0841605,98.1070989 63.075,95.16" id="Path" stroke="#000000" stroke-linecap="round"></path>
                        <path d="M88.965,63.5775 C98.3325,55.425 100.71,37.0725 97.9275,23.865 C95.4075,11.91 85.605,5.25 80.805,9.1575 C79.1175,2.64 60.555,-4.785 47.2275,4.0575 C30.2475,15.3075 22.5375,17.0775 13.7625,17.37 C16.6425,26.76 22.905,35.475 43.83,35.475 C55.83,35.475 62.1675,27.225 69.66,31.725 C73.755,34.1775 69.99,45.495 78.66,45.495 C89.8425,45.48 83.415,63.9525 88.965,63.5775 Z" id="Path" fill="#000000" fill-rule="nonzero"></path>
                    </g>
                </g>
            </g>
        </g>
    </g>
</svg>