<?xml version="1.0" encoding="UTF-8"?>
<svg width="160px" height="112px" viewBox="0 0 160 112" version="1.1" xmlns="http://www.w3.org/2000/svg" xmlns:xlink="http://www.w3.org/1999/xlink">
    <!-- Generator: Sketch 60.1 (88133) - https://sketch.com -->
    <title>Asset 4</title>
    <desc>Created with Sketch.</desc>
    <g id="Page-1" stroke="none" stroke-width="1" fill="none" fill-rule="evenodd">
        <g id="Careers" transform="translate(-960.000000, -3508.000000)">
            <g id="How" transform="translate(270.000000, 3046.000000)">
                <g id="6" transform="translate(640.000000, 462.000000)">
                    <g id="Asset-4" transform="translate(50.000000, 0.000000)">
                        <circle id="Oval" fill="#DAE3F7" fill-rule="nonzero" cx="90.73" cy="50.5" r="50.5"></circle>
                        <rect id="Rectangle" fill="#1258FF" fill-rule="nonzero" x="10" y="35.5" width="143.99" height="30" rx="15"></rect>
                        <rect id="Rectangle" fill="#F5F6F7" fill-rule="nonzero" x="0" y="35.28" width="143.99" height="30.43" rx="15.21"></rect>
                        <line x1="112.34" y1="50.5" x2="31.3" y2="50.5" id="Path" stroke="#C2D1F2" stroke-width="3" stroke-linecap="round"></line>
                        <circle id="Oval" fill="#1258FF" fill-rule="nonzero" cx="90.73" cy="50.5" r="11.92"></circle>
                        <path d="M136.88,60.14 C135.748409,61.1458184 135.08054,62.5729427 135.033251,64.0861953 C134.985961,65.599448 135.563419,67.0654887 136.63,68.14 L132.47,64 C130.412553,61.8757625 127.062302,61.7054107 124.8,63.61 C123.665781,64.6142556 122.996008,66.0418725 122.94869,67.5560528 C122.901372,69.0702331 123.480699,70.5368844 124.55,71.61 L120.24,67.3 C119.210184,66.2685988 117.812501,65.6890302 116.355,65.6890302 C114.897499,65.6890302 113.499816,66.2685988 112.47,67.3 L112.47,67.3 C111.438599,68.3298163 110.85903,69.7274986 110.85903,71.185 C110.85903,72.6425014 111.438599,74.0401837 112.47,75.07 L100,62.6 C97.9342949,60.4821878 94.5846786,60.3164515 92.32,62.22 C91.183139,63.2226795 90.5114466,64.6507931 90.4640992,66.1659094 C90.4167518,67.6810256 90.9979636,69.1482925 92.07,70.22 L115.22,93.37 L120.93,99.08 L110.34,99.08 C107.012185,99.0311901 104.213114,101.56389 103.93,104.88 C103.822266,106.583763 104.424107,108.256196 105.592779,109.500632 C106.76145,110.745069 108.392835,111.45064 110.1,111.45 L128,111.45 C134.187496,111.448405 140.121605,108.992043 144.5,104.62 L154,95.16 C160.942669,88.2101574 160.942669,76.9498426 154,70 L144.56,60.55 C142.504571,58.4184212 139.15069,58.2393729 136.88,60.14 Z" id="Path" fill="#0039B2" fill-rule="nonzero" opacity="0.2" style="mix-blend-mode: multiply;"></path>
                        <path d="M136.88,55.14 C135.748409,56.1458184 135.08054,57.5729427 135.033251,59.0861953 C134.985961,60.599448 135.563419,62.0654887 136.63,63.14 L132.47,59 C130.412553,56.8757625 127.062302,56.7054107 124.8,58.61 C123.665781,59.6142556 122.996008,61.0418725 122.94869,62.5560528 C122.901372,64.0702331 123.480699,65.5368844 124.55,66.61 L120.24,62.3 C119.210184,61.2685988 117.812501,60.6890302 116.355,60.6890302 C114.897499,60.6890302 113.499816,61.2685988 112.47,62.3 L112.47,62.3 C111.438599,63.3298163 110.85903,64.7274986 110.85903,66.185 C110.85903,67.6425014 111.438599,69.0401837 112.47,70.07 L100,57.6 C97.9342949,55.4821878 94.5846786,55.3164515 92.32,57.22 C91.183139,58.2226795 90.5114466,59.6507931 90.4640992,61.1659094 C90.4167518,62.6810256 90.9979636,64.1482925 92.07,65.22 L115.22,88.37 L120.93,94.08 L110.34,94.08 C107.012185,94.0311901 104.213114,96.5638901 103.93,99.88 C103.822266,101.583763 104.424107,103.256196 105.592779,104.500632 C106.76145,105.745069 108.392835,106.45064 110.1,106.45 L128,106.45 C134.187496,106.448405 140.121605,103.992043 144.5,99.62 L154,90.16 C160.942669,83.2101574 160.942669,71.9498426 154,65 L144.56,55.55 C142.504571,53.4184212 139.15069,53.2393729 136.88,55.14 Z" id="Path" fill="#FFC6B2" fill-rule="nonzero"></path>
                        <line x1="112.47" y1="70.07" x2="116.78" y2="74.38" id="Path" stroke="#000000" fill="#FFFFFF" fill-rule="nonzero" stroke-linecap="round" stroke-linejoin="round"></line>
                        <text id="A" fill="#C2D1F2" font-family=".AppleSystemUIFont" font-size="18" font-weight="normal">
                            <tspan x="9.79" y="55.32">A</tspan>
                        </text>
                        <text id="B" fill="#C2D1F2" font-family=".AppleSystemUIFont" font-size="18" font-weight="normal">
                            <tspan x="121.98" y="55.32">B</tspan>
                        </text>
                        <line x1="101.34" y1="23.96" x2="94.98" y2="30.31" id="Path" stroke="#000000" stroke-linecap="round"></line>
                        <line x1="85.94" y1="30.31" x2="79.58" y2="23.96" id="Path" stroke="#000000" stroke-linecap="round"></line>
                        <line x1="90.46" y1="19.45" x2="90.46" y2="28.44" id="Path" stroke="#000000" stroke-linecap="round"></line>
                        <line x1="95.61" y1="108.22" x2="55.61" y2="108.22" id="Path" stroke="#000000" stroke-linecap="round"></line>
                        <line x1="95.61" y1="93.76" x2="84.51" y2="93.76" id="Path" stroke="#000000" stroke-linecap="round"></line>
                        <line x1="77.8" y1="93.76" x2="70.79" y2="93.76" id="Path" stroke="#000000" stroke-linecap="round"></line>
                    </g>
                </g>
            </g>
        </g>
    </g>
</svg>